<svg xmlns="http://www.w3.org/2000/svg" version="1.1" xmlns:xlink="http://www.w3.org/1999/xlink" xmlns:svgjs="http://svgjs.dev/svgjs" width="2000" height="2250" viewBox="0 0 2000 2250"><g transform="matrix(1,0,0,1,3.410605131648481e-13,0)"><svg viewBox="0 0 320 360" data-background-color="#282634" preserveAspectRatio="xMidYMid meet" height="2250" width="2000" xmlns="http://www.w3.org/2000/svg" xmlns:xlink="http://www.w3.org/1999/xlink"><g id="tight-bounds" transform="matrix(1,0,0,1,0,0)"><svg viewBox="0 0 320 360" height="360" width="320"><g><svg></svg></g><g><svg viewBox="0 0 320 360" height="360" width="320"><g><path xmlns="http://www.w3.org/2000/svg" d="M20.961 227.22l3.726 4.658-1.863-6.056c-0.466-2.795-3.726 0.466-1.863 1.398M25.153 224.425c1.397 2.329 2.795 4.658 2.795 6.987 0 3.261 2.795 4.658 5.123 5.589-3.261-3.726-5.124-13.974-7.918-12.576M204.017 26.929c7.918 0 15.371-0.932 23.756 0.931 20.495 5.124 37.729 15.371 49.374 29.811l32.606 52.169c1.397 13.042 4.192 27.482 3.726 43.319 3.261 0 2.795-4.658 6.521-5.59-3.726 9.316-5.59 20.961-6.521 34.469-2.329-7.453 0-18.632 0.466-24.687-3.261 5.124-5.124 1.397-5.124-0.932 0.466-3.726-1.397-3.261-2.795-4.658-5.124-4.658-8.384-9.782-12.11-17.7 2.329-6.055 2.795-14.905-4.658-19.563-2.329-1.397-5.124-3.726-6.521-7.453-1.863-5.124-5.124-11.179-4.193-19.097 0.466-2.329-6.987 5.124-11.179 1.863-18.166-12.576-36.332-27.016-58.224-39.127-11.645 0-20.029-4.192-24.221-9.316-3.726-4.658-0.932-10.713 4.658-11.179 3.261 0 6.987-0.932 9.782 0.932 0.466-1.863 2.329-4.192 4.657-4.192M157.904 16.215l0.932 0.466c4.658 0.932 6.987 7.453 12.11 5.124 0 3.261 0.466 6.521-0.466 8.85-1.397 3.726-5.59 3.726-8.85 3.726-31.208-1.863-49.374 11.179-68.471 22.358-5.124 3.261-10.713 5.59-14.906 9.782-20.029 18.632-41.921 35.866-47.045 70.335l-4.192 38.195c-0.466 4.192-5.124 8.384-4.192 13.508l3.26 22.824c-3.261-3.261-5.124 0.932-4.192 2.795 0.466 1.397 2.329 6.055 5.124 1.863 3.726 6.987 7.453 20.495 12.576 26.55 15.837 18.632 36.332 35.4 53.101 52.169 4.192-0.932 7.453-0.932 8.384-3.727 1.397 2.795-1.397 5.59-3.726 6.056 7.453 4.658 15.837 8.85 27.016 9.781 14.44 0.932 27.948 3.261 40.524 6.522 6.521-1.863 13.042-2.795 20.029-3.261 2.329 0 3.726-3.726 6.521-4.658l0.466-4.658c2.795 4.192 2.329-1.397 0.466-4.192 3.261 2.795 4.192 5.124 5.589 6.987 0-1.397 3.726-6.521 3.727-0.466l0.931-6.055c1.397-0.932 1.863 5.124 3.261 0.931 1.397-4.192 4.192-0.932 6.987-2.329-0.932 1.863-0.466 5.59 2.794 3.261l3.727-3.261c2.329 5.59 6.055 3.261 7.918 2.329 20.495-13.042 40.99-28.413 60.553-43.784l-0.466 6.055 2.329-7.453c2.329 2.329 4.192 0.466 5.124-0.931 2.795-4.658 6.521-9.316 12.577-13.508-7.453 20.029-16.303 35.866-27.482 48.908l-4.658 5.59c0 3.261-0.932 7.453-4.658 7.918-1.863 0.466-5.59-0.932-8.384 1.863-1.397 1.863 3.261 5.59-0.466 2.795-3.261-2.329-6.521 0-10.248 0.932-2.795 0.932 1.863 3.726 2.795 5.589 0.932 1.863 1.863 3.726 1.398 6.056l-5.124-5.59c-6.055 3.261-9.782 9.316-14.906 13.974-2.329 1.863-1.397 5.124-1.397 7.918-3.261 0-6.987-0.932-8.85 0.932-1.397 1.863-0.932 4.658-0.932 7.453-4.658-0.466-5.124-7.453-9.315-6.056-4.192 0.932-8.85 1.397-12.577 3.727 2.795 5.59-4.658 2.329-3.726 3.26-6.987-4.192-13.042-7.453-20.495-4.658-15.837-5.124-35.4-2.795-49.84-0.931 0-2.329 0.466-4.658-0.466-5.124-0.932 2.329-3.726 1.397-3.26 1.397-8.85-6.055-17.7-9.782-27.016-14.905-8.384 0.932-16.303-3.261-18.632-5.59-6.521-6.055-13.974-2.795-20.029-4.192-13.042-3.261-17.7-16.769-19.098-26.084-0.932-4.658-4.658-6.521-6.055-6.056-6.055-19.563-15.371-37.263-22.824-55.429-1.863-4.658-1.397-9.316-1.397-14.44 2.329 0.932 4.658 0.466 4.192-2.794-2.329-15.371-7.918-27.016-13.974-38.195 3.261-15.837 3.726-34.469 11.179-48.443 6.521-12.576 18.632-19.098 27.016-29.811 2.795-3.726 2.795-8.85 5.59-12.11 9.316-9.316 18.632-19.098 28.879-27.482 4.658-3.726 10.247 0 17.234-1.397 2.329-8.384 11.645-15.837 20.495-13.508 3.726 0.932 11.179-8.85 13.508-9.782 3.726-1.397 1.863 3.726 1.863 6.987 8.85-6.987 20.961-10.713 32.14-14.906" fill="#ff4057" fill-rule="nonzero" stroke="none" stroke-width="1" stroke-linecap="butt" stroke-linejoin="miter" stroke-miterlimit="10" stroke-dasharray="" stroke-dashoffset="0" font-family="none" font-weight="none" font-size="none" text-anchor="none" style="mix-blend-mode: normal" data-fill-palette-color="tertiary"></path></g><g transform="matrix(1,0,0,1,64.00000000000001,155.21461874191368)"><svg viewBox="0 0 191.99999999999997 49.570762516172614" height="49.570762516172614" width="191.99999999999997"><g><svg viewBox="0 0 191.99999999999997 49.570762516172614" height="49.570762516172614" width="191.99999999999997"><g><svg viewBox="0 0 191.99999999999997 49.570762516172614" height="49.570762516172614" width="191.99999999999997"><g><svg viewBox="0 0 191.99999999999997 49.570762516172614" height="49.570762516172614" width="191.99999999999997"><g id="textblocktransform"><svg viewBox="0 0 191.99999999999997 49.570762516172614" height="49.570762516172614" width="191.99999999999997" id="textblock"><g><svg viewBox="0 0 191.99999999999997 28.102550062345436" height="28.102550062345436" width="191.99999999999997"><g transform="matrix(1,0,0,1,0,0)"><svg width="191.99999999999997" viewBox="0.45000001788139343 -34.099998474121094 316.9805908203125 46.39999771118164" height="28.102550062345436" data-palette-color="#ff4057"><path d="M11.65-12.9L0.45-31.4 5.15-31.4 14.15-16.15 13.15-16.15 22.3-31.4 26.95-31.4 15.6-12.9 15.6 0 11.65 0 11.65-12.9ZM37.87 0.6L37.87 0.6Q34.65 0.6 32.13-0.83 29.62-2.25 28.17-5.05 26.72-7.85 26.72-11.95L26.72-11.95Q26.72-16.07 28.17-18.86 29.62-21.65 32.13-23.08 34.65-24.5 37.87-24.5L37.87-24.5Q41.07-24.5 43.59-23.08 46.1-21.65 47.53-18.86 48.97-16.07 48.97-11.95L48.97-11.95Q48.97-7.85 47.53-5.05 46.1-2.25 43.59-0.83 41.07 0.6 37.87 0.6ZM37.77-2.8L37.77-2.8Q40.1-2.8 41.72-3.91 43.35-5.03 44.19-7.08 45.02-9.13 45.02-11.95L45.02-11.95Q45.02-16.23 43.25-18.69 41.47-21.15 37.97-21.15L37.97-21.15Q35.62-21.15 34.01-20.04 32.4-18.93 31.56-16.86 30.72-14.8 30.72-11.95L30.72-11.95Q30.72-7.73 32.51-5.26 34.3-2.8 37.77-2.8ZM72.8 0L72.8-23.95 76.7-23.95 76.7 0 72.8 0ZM55.85-8.75L55.85-23.95 59.75-23.95 59.75-9.05Q59.75-6.05 61.21-4.5 62.67-2.95 65.4-2.95L65.4-2.95Q67.65-2.95 69.31-4.15 70.97-5.35 71.88-7.46 72.8-9.58 72.8-12.3L72.8-12.3 74.25-12.3Q74.25-8.28 73.08-5.43 71.92-2.58 69.81-1.06 67.7 0.45 64.84 0.45L64.84 0.45Q62.15 0.45 60.12-0.55 58.1-1.55 56.97-3.59 55.85-5.63 55.85-8.75L55.85-8.75ZM90.72 0L86.82 0 86.82-23.95 90.72-23.95 90.72 0ZM90.72-10.8L89.52-10.8Q89.52-15.35 90.39-18.36 91.27-21.38 92.96-22.86 94.64-24.35 97.07-24.35L97.07-24.35Q97.87-24.35 98.53-24.24 99.19-24.13 99.87-23.9L99.87-23.9 99.62-20.05Q98.92-20.28 98.09-20.44 97.27-20.6 96.62-20.6L96.62-20.6Q94.49-20.6 93.19-19.39 91.89-18.18 91.31-15.98 90.72-13.78 90.72-10.8L90.72-10.8ZM120.66 0L116.76 0 116.76-34.1 120.66-34.1 120.66 0ZM139.41 0.6L139.41 0.6Q136.19 0.6 133.67-0.83 131.16-2.25 129.71-5.05 128.26-7.85 128.26-11.95L128.26-11.95Q128.26-16.07 129.71-18.86 131.16-21.65 133.67-23.08 136.19-24.5 139.41-24.5L139.41-24.5Q142.61-24.5 145.12-23.08 147.64-21.65 149.07-18.86 150.51-16.07 150.51-11.95L150.51-11.95Q150.51-7.85 149.07-5.05 147.64-2.25 145.12-0.83 142.61 0.6 139.41 0.6ZM139.31-2.8L139.31-2.8Q141.64-2.8 143.26-3.91 144.89-5.03 145.72-7.08 146.56-9.13 146.56-11.95L146.56-11.95Q146.56-16.23 144.79-18.69 143.01-21.15 139.51-21.15L139.51-21.15Q137.16-21.15 135.55-20.04 133.94-18.93 133.1-16.86 132.26-14.8 132.26-11.95L132.26-11.95Q132.26-7.73 134.05-5.26 135.84-2.8 139.31-2.8ZM166.53 12.3L166.53 12.3Q162.86 12.3 160.16 11.26 157.46 10.23 155.97 8.49 154.48 6.75 154.48 4.65L154.48 4.65Q154.48 1.88 156.52 0.41 158.56-1.05 161.78-1.05L161.78-1.05 163.93 0.3Q161.23 0.3 159.76 1.43 158.28 2.55 158.28 4.5L158.28 4.5Q158.28 6.45 160.38 7.8 162.48 9.15 166.53 9.15L166.53 9.15Q169.53 9.15 171.8 8.29 174.06 7.43 175.32 6.04 176.58 4.65 176.58 3.05L176.58 3.05Q176.58 1.93 175.76 1.11 174.93 0.3 173.23 0.3L173.23 0.3 163.93 0.3Q161.51 0.3 159.75-0.44 157.98-1.18 157.03-2.38 156.08-3.58 156.08-5L156.08-5Q156.08-6.5 156.93-7.55 157.78-8.6 159.15-9.15 160.51-9.7 162.08-9.7L162.08-9.7 162.83-8.25Q162.08-8.25 161.32-7.91 160.56-7.58 160.05-6.91 159.53-6.25 159.53-5.25L159.53-5.25Q159.53-4.1 160.48-3.33 161.43-2.55 163.93-2.55L163.93-2.55 173.23-2.55Q176.61-2.55 178.55-1.13 180.48 0.3 180.48 2.85L180.48 2.85Q180.48 5.2 178.81 7.36 177.13 9.53 174.01 10.91 170.88 12.3 166.53 12.3ZM167.23-7L167.23-7Q164.48-7 162.27-8.1 160.06-9.2 158.77-11.18 157.48-13.15 157.48-15.75L157.48-15.75Q157.48-18.38 158.77-20.35 160.06-22.33 162.27-23.41 164.48-24.5 167.23-24.5L167.23-24.5Q169.91-24.5 172.1-23.41 174.28-22.33 175.58-20.35 176.88-18.38 176.88-15.75L176.88-15.75Q176.88-13.15 175.58-11.18 174.28-9.2 172.1-8.1 169.91-7 167.23-7ZM167.23-9.8L167.23-9.8Q169.98-9.8 171.51-11.5 173.03-13.2 173.03-15.75L173.03-15.75Q173.03-18.38 171.51-20.01 169.98-21.65 167.23-21.65L167.23-21.65Q164.51-21.65 162.95-20.01 161.38-18.38 161.38-15.75L161.38-15.75Q161.38-13.2 162.95-11.5 164.51-9.8 167.23-9.8ZM175.08-20.7L175.08-20.7 173.23-21.45Q173.23-23.55 174.06-25.14 174.88-26.73 176.41-27.61 177.93-28.5 180.03-28.5L180.03-28.5 179.73-24.65Q177.48-24.65 176.28-23.69 175.08-22.73 175.08-20.7ZM194.96 0.6L194.96 0.6Q191.73 0.6 189.22-0.83 186.71-2.25 185.26-5.05 183.81-7.85 183.81-11.95L183.81-11.95Q183.81-16.07 185.26-18.86 186.71-21.65 189.22-23.08 191.73-24.5 194.96-24.5L194.96-24.5Q198.16-24.5 200.67-23.08 203.18-21.65 204.62-18.86 206.06-16.07 206.06-11.95L206.06-11.95Q206.06-7.85 204.62-5.05 203.18-2.25 200.67-0.83 198.16 0.6 194.96 0.6ZM194.86-2.8L194.86-2.8Q197.18-2.8 198.81-3.91 200.43-5.03 201.27-7.08 202.11-9.13 202.11-11.95L202.11-11.95Q202.11-16.23 200.33-18.69 198.56-21.15 195.06-21.15L195.06-21.15Q192.71-21.15 191.09-20.04 189.48-18.93 188.64-16.86 187.81-14.8 187.81-11.95L187.81-11.95Q187.81-7.73 189.59-5.26 191.38-2.8 194.86-2.8ZM246.35 0L242.5 0 242.5-14.05Q242.5-17.48 240.86-19.26 239.23-21.05 236.4-21.05L236.4-21.05Q234.25-21.05 232.68-19.88 231.1-18.7 230.25-16.51 229.4-14.33 229.4-11.3L229.4-11.3 227.9-11.3Q227.9-15.48 229-18.43 230.1-21.38 232.21-22.94 234.33-24.5 237.35-24.5L237.35-24.5Q240.18-24.5 242.19-23.24 244.2-21.98 245.28-19.63 246.35-17.28 246.35-14.05L246.35-14.05 246.35 0ZM229.4 0L225.5 0 225.5-34.1 229.4-34.1 229.4 0ZM263.97 0.6L263.97 0.6Q260.87 0.6 258.44-0.99 256-2.58 254.59-5.4 253.17-8.22 253.17-11.9L253.17-11.9Q253.17-15.83 254.57-18.65 255.97-21.48 258.41-22.99 260.85-24.5 263.97-24.5L263.97-24.5Q266.7-24.5 268.62-23.4 270.55-22.3 271.72-20.43 272.9-18.55 273.36-16.19 273.82-13.83 273.62-11.3L273.62-11.3 256.32-11.3 256.32-13.7 271.05-13.7 269.9-12.95Q269.97-14.43 269.74-15.9 269.5-17.38 268.85-18.61 268.2-19.85 267.02-20.6 265.85-21.35 264.02-21.35L264.02-21.35Q261.72-21.35 260.17-20.18 258.62-19 257.85-17.09 257.07-15.18 257.07-12.95L257.07-12.95 257.07-11.35Q257.07-8.85 257.84-6.88 258.6-4.9 260.12-3.75 261.65-2.6 263.97-2.6L263.97-2.6Q266.3-2.6 267.8-3.73 269.3-4.85 269.62-7.05L269.62-7.05 273.67-7.05Q273.3-4.67 271.97-2.96 270.65-1.25 268.6-0.33 266.55 0.6 263.97 0.6ZM285.25 0L281.35 0 281.35-23.95 285.25-23.95 285.25 0ZM285.25-10.8L284.05-10.8Q284.05-15.35 284.92-18.36 285.8-21.38 287.48-22.86 289.17-24.35 291.6-24.35L291.6-24.35Q292.4-24.35 293.06-24.24 293.72-24.13 294.4-23.9L294.4-23.9 294.15-20.05Q293.45-20.28 292.62-20.44 291.8-20.6 291.15-20.6L291.15-20.6Q289.02-20.6 287.72-19.39 286.42-18.18 285.83-15.98 285.25-13.78 285.25-10.8L285.25-10.8ZM307.72 0.6L307.72 0.6Q304.62 0.6 302.18-0.99 299.74-2.58 298.33-5.4 296.92-8.22 296.92-11.9L296.92-11.9Q296.92-15.83 298.32-18.65 299.72-21.48 302.16-22.99 304.59-24.5 307.72-24.5L307.72-24.5Q310.44-24.5 312.37-23.4 314.29-22.3 315.47-20.43 316.64-18.55 317.11-16.19 317.57-13.83 317.37-11.3L317.37-11.3 300.07-11.3 300.07-13.7 314.79-13.7 313.64-12.95Q313.72-14.43 313.48-15.9 313.24-17.38 312.59-18.61 311.94-19.85 310.77-20.6 309.59-21.35 307.77-21.35L307.77-21.35Q305.47-21.35 303.92-20.18 302.37-19 301.59-17.09 300.82-15.18 300.82-12.95L300.82-12.95 300.82-11.35Q300.82-8.85 301.58-6.88 302.34-4.9 303.87-3.75 305.39-2.6 307.72-2.6L307.72-2.6Q310.04-2.6 311.54-3.73 313.04-4.85 313.37-7.05L313.37-7.05 317.42-7.05Q317.04-4.67 315.72-2.96 314.39-1.25 312.34-0.33 310.29 0.6 307.72 0.6Z" opacity="1" transform="matrix(1,0,0,1,0,0)" fill="#ff4057" class="wordmark-text-0" data-fill-palette-color="primary" id="text-0"></path></svg></g></svg></g><g transform="matrix(1,0,0,1,0,32.20338657764313)"><svg viewBox="0 0 191.99999999999997 17.36737593852948" height="17.36737593852948" width="191.99999999999997"><g transform="matrix(1,0,0,1,0,0)"><svg width="191.99999999999997" viewBox="1.5 -35.349998474121094 496.3800048828125 44.89999771118164" height="17.36737593852948" data-palette-color="#dcdcdc"><path d="M27.5-33.7L16-12.6 16 0 12.9 0 12.9-12.6 1.5-33.7 5.05-33.7 7.7-28.75 14.45-15.75Q14.85-16.7 21.3-28.75L21.3-28.75 23.95-33.7 27.5-33.7ZM64.52-12.55L64.52-12.55Q64.52-6.9 61.34-3.23 58.17 0.45 52.62 0.45L52.62 0.45Q47.27 0.45 44.12-3.25 40.97-6.95 40.97-12.55L40.97-12.55Q40.97-18.1 44.22-21.9 47.47-25.7 52.62-25.7L52.62-25.7Q58.27-25.7 61.39-21.98 64.52-18.25 64.52-12.55ZM44.17-12.55L44.17-12.55Q44.17-8.4 46.49-5.43 48.82-2.45 52.62-2.45L52.62-2.45Q56.77-2.45 59.04-5.38 61.32-8.3 61.32-12.55L61.32-12.55Q61.32-16.95 59.17-19.88 57.02-22.8 52.62-22.8L52.62-22.8Q48.67-22.8 46.42-19.8 44.17-16.8 44.17-12.55ZM99.13-25.35L99.13 0 96.08 0 96.08-4.55Q94.08 0.35 88.03 0.35L88.03 0.35Q84.33 0.35 82.16-1.88 79.98-4.1 79.98-7.75L79.98-7.75 79.98-25.35 83.03-25.35 83.03-8.6Q83.03-5.7 84.56-4.15 86.08-2.6 88.58-2.6L88.58-2.6Q91.93-2.6 94.01-5 96.08-7.4 96.08-11.25L96.08-11.25 96.08-25.35 99.13-25.35ZM119.5-14.15L119.5 0 116.45 0 116.45-25.35 119.5-25.35 119.5-21.05Q121.6-25.65 126.6-25.65L126.6-25.65Q126.95-25.65 127.85-25.55L127.85-25.55 127.85-22.45Q126.85-22.75 125.85-22.75L125.85-22.75Q123.15-22.75 121.32-20.08 119.5-17.4 119.5-14.15L119.5-14.15ZM178.43-6.5L178.43-6.5Q178.43-3.35 176.25-1.53 174.08 0.3 170.28 0.3L170.28 0.3Q165.68 0.3 162.88-1.2L162.88-1.2 162.88-4.35Q166.23-2.45 170.08-2.45L170.08-2.45Q172.63-2.45 173.95-3.5 175.28-4.55 175.28-6.25L175.28-6.25Q175.28-8.25 173.9-9.35 172.53-10.45 169.38-11.7L169.38-11.7Q166.33-12.9 164.53-14.5 162.73-16.1 162.73-18.9L162.73-18.9Q162.73-21.95 164.98-23.78 167.23-25.6 170.63-25.6L170.63-25.6Q174.73-25.6 176.93-24.45L176.93-24.45 176.93-21.4Q174.58-22.75 170.58-22.75L170.58-22.75Q168.38-22.75 167.1-21.73 165.83-20.7 165.83-19.05L165.83-19.05Q165.83-18.05 166.2-17.3 166.58-16.55 167.5-15.93 168.43-15.3 169.08-15 169.73-14.7 171.18-14.1L171.18-14.1Q174.68-12.7 176.55-11.03 178.43-9.35 178.43-6.5ZM196.94-35.35L196.94 0 193.89 0 193.89-35.35 196.94-35.35ZM236.46-12.55L236.46-12.55Q236.46-6.9 233.28-3.23 230.11 0.45 224.56 0.45L224.56 0.45Q219.21 0.45 216.06-3.25 212.91-6.95 212.91-12.55L212.91-12.55Q212.91-18.1 216.16-21.9 219.41-25.7 224.56-25.7L224.56-25.7Q230.21-25.7 233.33-21.98 236.46-18.25 236.46-12.55ZM216.11-12.55L216.11-12.55Q216.11-8.4 218.43-5.43 220.76-2.45 224.56-2.45L224.56-2.45Q228.71-2.45 230.98-5.38 233.26-8.3 233.26-12.55L233.26-12.55Q233.26-16.95 231.11-19.88 228.96-22.8 224.56-22.8L224.56-22.8Q220.61-22.8 218.36-19.8 216.11-16.8 216.11-12.55ZM271.87-25.35L271.87-1.95Q271.87 3.8 268.77 6.68 265.67 9.55 260.77 9.55L260.77 9.55Q256.42 9.55 253.37 8.1L253.37 8.1 253.37 5.1Q256.47 6.65 260.52 6.65L260.52 6.65Q264.32 6.65 266.57 4.58 268.82 2.5 268.82-1.95L268.82-1.95 268.82-5.25Q266.27-0.6 261.22-0.6L261.22-0.6Q256.82-0.6 253.75-3.85 250.67-7.1 250.67-12.65L250.67-12.65Q250.67-18.35 253.5-22.05 256.32-25.75 260.92-25.75L260.92-25.75Q266.37-25.75 268.82-20.9L268.82-20.9 268.82-25.35 271.87-25.35ZM253.87-12.8L253.87-12.8Q253.87-8.25 256.17-5.88 258.47-3.5 261.27-3.5L261.27-3.5Q264.12-3.5 266.47-5.73 268.82-7.95 268.82-12.55L268.82-12.55Q268.82-17.8 266.57-20.33 264.32-22.85 261.52-22.85L261.52-22.85Q257.97-22.85 255.92-20.05 253.87-17.25 253.87-12.8ZM296.24-2.55L296.24-2.55Q299.24-2.55 301.04-4.2 302.84-5.85 302.84-8.4L302.84-8.4 302.84-12.05 297.89-12.05Q294.34-12.05 292.59-10.68 290.84-9.3 290.84-7.25L290.84-7.25Q290.84-5.15 292.21-3.85 293.59-2.55 296.24-2.55ZM302.84 0L302.84-2.95Q300.74 0.25 295.54 0.25L295.54 0.25Q292.04 0.25 289.81-1.83 287.59-3.9 287.59-7.15L287.59-7.15Q287.59-10.8 290.41-12.83 293.24-14.85 297.89-14.85L297.89-14.85 302.84-14.85 302.84-16Q302.84-19.4 301.39-21.13 299.94-22.85 296.54-22.85L296.54-22.85Q292.59-22.85 289.44-20.7L289.44-20.7 289.44-24Q292.34-25.75 296.59-25.75L296.59-25.75Q305.89-25.75 305.89-16L305.89-16 305.89 0 302.84 0ZM342.05-17.7L342.05 0 339 0 339-16.75Q339-19.7 337.5-21.25 336-22.8 333.55-22.8L333.55-22.8Q330.45-22.8 328.2-20.43 325.95-18.05 325.95-14L325.95-14 325.95 0 322.9 0 322.9-25.35 325.95-25.35 325.95-21Q328.3-25.75 334-25.75L334-25.75Q337.65-25.75 339.85-23.5 342.05-21.25 342.05-17.7L342.05-17.7ZM400.03-17.7L400.03 0 396.98 0 396.98-16.75Q396.98-19.7 395.48-21.25 393.98-22.8 391.53-22.8L391.53-22.8Q388.43-22.8 386.18-20.43 383.93-18.05 383.93-14L383.93-14 383.93 0 380.88 0 380.88-35.35 383.93-35.35 383.93-21Q386.23-25.75 391.98-25.75L391.98-25.75Q395.63-25.75 397.83-23.5 400.03-21.25 400.03-17.7L400.03-17.7ZM435.2-4.35L435.2-1.25Q432.2 0.25 428.2 0.25L428.2 0.25Q422.55 0.25 419.02-3.28 415.5-6.8 415.5-12.55L415.5-12.55Q415.5-18.65 418.6-22.15 421.7-25.65 426.65-25.65L426.65-25.65Q431.3-25.65 434.05-22.6 436.8-19.55 436.8-14L436.8-14Q436.8-12.3 436.6-11.3L436.6-11.3 418.7-11.3Q419.05-7.1 421.6-4.88 424.15-2.65 428.35-2.65L428.35-2.65Q432.65-2.65 435.2-4.35L435.2-4.35ZM426.55-22.8L426.55-22.8Q423.35-22.8 421.2-20.55 419.05-18.3 418.7-14.1L418.7-14.1 433.65-14.1 433.65-15.25Q433.65-18.7 431.72-20.75 429.8-22.8 426.55-22.8ZM455.76-14.15L455.76 0 452.71 0 452.71-25.35 455.76-25.35 455.76-21.05Q457.86-25.65 462.86-25.65L462.86-25.65Q463.21-25.65 464.11-25.55L464.11-25.55 464.11-22.45Q463.11-22.75 462.11-22.75L462.11-22.75Q459.41-22.75 457.59-20.08 455.76-17.4 455.76-14.15L455.76-14.15ZM496.28-4.35L496.28-1.25Q493.28 0.25 489.28 0.25L489.28 0.25Q483.63 0.25 480.1-3.28 476.58-6.8 476.58-12.55L476.58-12.55Q476.58-18.65 479.68-22.15 482.78-25.65 487.73-25.65L487.73-25.65Q492.38-25.65 495.13-22.6 497.88-19.55 497.88-14L497.88-14Q497.88-12.3 497.68-11.3L497.68-11.3 479.78-11.3Q480.13-7.1 482.68-4.88 485.23-2.65 489.43-2.65L489.43-2.65Q493.73-2.65 496.28-4.35L496.28-4.35ZM487.63-22.8L487.63-22.8Q484.43-22.8 482.28-20.55 480.13-18.3 479.78-14.1L479.78-14.1 494.73-14.1 494.73-15.25Q494.73-18.7 492.8-20.75 490.88-22.8 487.63-22.8Z" opacity="1" transform="matrix(1,0,0,1,0,0)" fill="#dcdcdc" class="slogan-text-1" data-fill-palette-color="secondary" id="text-1"></path></svg></g></svg></g></svg></g></svg></g><g></g></svg></g></svg></g></svg></g></svg></g><defs></defs></svg><rect width="320" height="360" fill="none" stroke="none" visibility="hidden"></rect></g></svg></g></svg>